<?xml version="1.0" standalone="no"?>
<!DOCTYPE svg PUBLIC "-//W3C//DTD SVG 20010904//EN"
 "http://www.w3.org/TR/2001/REC-SVG-20010904/DTD/svg10.dtd">
<svg version="1.0" xmlns="http://www.w3.org/2000/svg"
 width="16.000000pt" height="16.000000pt" viewBox="0 0 16.000000 16.000000"
 preserveAspectRatio="xMidYMid meet">
<metadata>
Created by potrace 1.11, written by Peter Selinger 2001-2013
</metadata>
<g transform="translate(0.000000,16.000000) scale(0.002759,-0.002759)"
fill="#000000" stroke="none">
<path d="M0 2900 l0 -2900 2900 0 2900 0 0 2900 0 2900 -2900 0 -2900 0 0
-2900z m3270 1645 c401 -57 696 -168 988 -374 74 -53 266 -230 283 -263 14
-26 -14 -180 -56 -305 -147 -438 -506 -783 -977 -937 -465 -153 -978 -123
-1395 82 -229 112 -346 206 -506 403 -134 166 -238 436 -261 679 l-6 64 62 61
c170 164 433 336 658 429 181 74 468 146 660 165 143 14 436 12 550 -4z m1390
-840 c0 -11 12 -65 25 -119 14 -55 24 -105 21 -111 -2 -6 2 -22 10 -36 16 -29
20 -63 4 -39 -9 14 -9 0 -1 -65 1 -5 5 -3 10 4 8 12 11 8 16 -15 4 -16 13 -49
20 -74 49 -163 46 -281 -11 -463 -32 -99 -93 -237 -114 -255 -9 -8 -10 -11 -2
-7 11 6 12 3 3 -13 -6 -12 -17 -25 -24 -29 -6 -4 -12 -15 -12 -23 0 -8 -4 -14
-10 -13 -5 1 -23 -17 -40 -40 -19 -27 -22 -37 -10 -27 14 11 13 6 -5 -16 -181
-230 -376 -387 -654 -524 -250 -123 -515 -193 -855 -225 -159 -15 -184 -15
-319 0 -315 34 -573 107 -818 230 -82 41 -160 84 -174 96 -23 20 -22 19 15 -2
91 -52 165 -90 165 -85 0 3 -23 17 -50 31 -28 14 -75 41 -105 60 -58 38 -70
42 -59 23 4 -8 3 -10 -2 -5 -5 5 -9 13 -9 17 0 5 -8 15 -17 22 -16 12 -17 16
-2 58 14 39 15 74 9 250 -5 113 -8 214 -7 225 0 11 0 36 0 55 1 147 6 160 57
160 23 0 71 -19 140 -55 116 -61 297 -138 420 -178 323 -106 756 -120 1113
-36 453 107 839 382 1062 756 94 158 143 298 175 498 l7 40 14 -25 c7 -14 13
-34 14 -45z m-600 -859 c0 -2 -8 -10 -17 -17 -16 -13 -17 -12 -4 4 13 16 21
21 21 13z m-45 -36 c-10 -16 -112 -83 -201 -132 -133 -74 -355 -155 -476 -175
-29 -4 -36 -8 -26 -15 9 -7 8 -8 -6 -4 -10 4 -24 2 -30 -2 -6 -5 -31 -12 -56
-16 -34 -5 -41 -4 -30 5 12 8 8 9 -15 5 -16 -4 -109 -9 -206 -13 -186 -6 -294
2 -472 38 -99 20 -262 67 -255 74 2 2 40 -7 83 -21 287 -89 695 -102 1024 -34
201 42 435 139 586 243 87 61 89 62 80 47z m-1875 -190 c8 -5 11 -10 5 -10 -5
0 -17 5 -25 10 -8 5 -10 10 -5 10 6 0 17 -5 25 -10z m80 -32 c10 -6 7 -7 -10
-2 -14 3 -32 11 -40 16 -10 6 -7 7 10 2 14 -3 32 -11 40 -16z m2370 -162 c0
-2 -8 -10 -17 -17 -16 -13 -17 -12 -4 4 13 16 21 21 21 13z m0 -100 c0 -2 -8
-10 -17 -17 -16 -13 -17 -12 -4 4 13 16 21 21 21 13z m-79 -95 c-65 -82 -238
-235 -354 -312 -362 -242 -807 -372 -1277 -373 -197 -1 -297 10 -480 50 -164
37 -247 64 -229 75 18 11 32 12 25 0 -6 -9 125 -51 157 -51 11 0 44 -7 74 -16
30 -9 66 -14 79 -11 14 2 21 0 17 -6 -4 -7 11 -8 43 -4 34 4 43 3 29 -3 -14
-7 3 -8 50 -5 39 2 57 1 41 -3 -17 -4 61 -7 173 -7 111 0 192 3 179 7 -17 4
-12 6 20 7 23 1 86 8 139 17 54 8 105 13 115 11 10 -3 18 -1 18 4 0 6 14 7 33
4 23 -5 37 -2 46 9 8 10 24 13 49 9 29 -4 34 -2 22 7 -12 9 -7 10 20 5 23 -4
30 -3 22 3 -11 7 -8 11 11 16 14 3 33 3 43 -1 13 -5 15 -3 9 7 -6 10 -3 12 13
8 14 -4 20 -2 16 4 -4 6 2 8 16 3 16 -5 20 -4 15 5 -5 9 -2 10 13 6 11 -4 26
-1 33 6 8 7 25 14 39 16 14 1 27 7 28 12 2 6 14 10 27 10 12 0 28 7 35 15 7 8
16 12 21 9 5 -3 9 0 9 6 0 6 4 9 9 6 13 -8 42 4 35 15 -3 5 3 6 12 2 12 -4 15
-3 10 5 -5 8 -1 10 10 5 13 -5 15 -3 9 7 -5 8 -4 11 2 7 13 -8 84 28 75 38 -4
5 -2 5 5 1 33 -19 319 197 445 335 76 85 99 103 49 40z m-2890 -188 c13 -17
13 -17 -6 -3 -11 8 -22 16 -24 17 -2 2 0 3 6 3 6 0 17 -8 24 -17z m278 -269
c14 -12 -19 -1 -35 12 -18 14 -18 14 6 3 14 -6 27 -13 29 -15z m81 -34 c8 -5
11 -10 5 -10 -5 0 -17 5 -25 10 -8 5 -10 10 -5 10 6 0 17 -5 25 -10z m50 -20
c8 -5 11 -10 5 -10 -5 0 -17 5 -25 10 -8 5 -10 10 -5 10 6 0 17 -5 25 -10z
m94 -36 c17 -7 24 -13 16 -13 -8 0 -33 9 -55 20 -43 20 -11 15 39 -7z"/>
<path d="M4711 3304 c0 -11 3 -14 6 -6 3 7 2 16 -1 19 -3 4 -6 -2 -5 -13z"/>
</g>
</svg>
